<svg width="390" height="844" viewBox="0 0 390 844" fill="none" xmlns="http://www.w3.org/2000/svg">
  <rect width="390" height="844" fill="#071126"/>
  <circle cx="80" cy="70" r="110" fill="#D946EF" fill-opacity="0.28"/>
  <circle cx="330" cy="170" r="120" fill="#22D3EE" fill-opacity="0.22"/>
  <text x="24" y="72" fill="#F8FAFC" font-family="Arial" font-size="34" font-weight="800">Little Wins</text>
  <rect x="24" y="112" width="342" height="170" rx="28" fill="white" fill-opacity="0.1" stroke="white" stroke-opacity="0.16"/>
  <text x="44" y="158" fill="#F8FAFC" font-family="Arial" font-size="28" font-weight="800">Home sprint</text>
  <text x="44" y="195" fill="#CBD5E1" font-family="Arial" font-size="15">Make chores feel like tiny victories.</text>
  <rect x="44" y="224" width="190" height="42" rx="21" fill="url(#g)"/>
  <text x="68" y="251" fill="white" font-family="Arial" font-size="15" font-weight="700">Add a little win</text>
  <rect x="24" y="316" width="300" height="470" rx="32" fill="white" fill-opacity="0.12" stroke="white" stroke-opacity="0.14"/>
  <rect x="44" y="340" width="260" height="8" rx="4" fill="url(#g)"/>
  <text x="44" y="388" fill="#F8FAFC" font-family="Arial" font-size="26" font-weight="800">To Do</text>
  <rect x="44" y="420" width="240" height="126" rx="24" fill="white" fill-opacity="0.95"/>
  <text x="64" y="458" fill="#0F172A" font-family="Arial" font-size="18" font-weight="800">✨ Reset kitchen</text>
  <rect x="64" y="482" width="176" height="10" rx="5" fill="#E2E8F0"/>
  <rect x="64" y="482" width="100" height="10" rx="5" fill="url(#g)"/>
  <circle cx="76" cy="518" r="10" fill="#22C55E"/><text x="96" y="524" fill="#475569" font-family="Arial" font-size="14">Wipe counters</text>
  <rect x="44" y="566" width="240" height="126" rx="24" fill="white" fill-opacity="0.95"/>
  <text x="64" y="604" fill="#0F172A" font-family="Arial" font-size="18" font-weight="800">🧺 Fold laundry</text>
  <rect x="64" y="628" width="176" height="10" rx="5" fill="#E2E8F0"/>
  <rect x="64" y="628" width="56" height="10" rx="5" fill="url(#g)"/>
  <defs><linearGradient id="g" x1="44" y1="224" x2="230" y2="268"><stop stop-color="#F472B6"/><stop offset=".5" stop-color="#A78BFA"/><stop offset="1" stop-color="#22D3EE"/></linearGradient></defs>
</svg>
